<svg xmlns="http://www.w3.org/2000/svg" viewBox="0 0 24 24"><defs><style>.cls-1,.cls-2{fill:#0e1317;}.cls-1{fill-rule:evenodd;}</style></defs><title>ic-actions-calendar</title><g id="Layer-23" data-name="Layer"><g id="Vrstva_98" data-name="Vrstva 98"><path class="cls-1" d="M20,4H19V3a1,1,0,0,0-2,0V4H7V3A1,1,0,0,0,5,3V4H4A3,3,0,0,0,1,7V19a3,3,0,0,0,3,3H20a3,3,0,0,0,3-3V7A3,3,0,0,0,20,4ZM3,7A1,1,0,0,1,4,6H20a1,1,0,0,1,1,1V8H3ZM21,19a1,1,0,0,1-1,1H4a1,1,0,0,1-1-1V10H21Z"/><rect class="cls-2" x="5" y="12" width="3" height="3" rx="0.8"/><rect class="cls-2" x="10" y="12" width="3" height="3" rx="0.8"/></g></g></svg>