<?xml version="1.0" encoding="iso-8859-1"?>
<!-- Generator: Adobe Illustrator 19.0.0, SVG Export Plug-In . SVG Version: 6.00 Build 0)  -->
<svg version="1.1" id="Capa_1" xmlns="http://www.w3.org/2000/svg" xmlns:xlink="http://www.w3.org/1999/xlink" x="0px" y="0px"
	 viewBox="0 0 512 512" style="enable-background:new 0 0 512 512;" xml:space="preserve">
<g>
	<g>
		<path d="M256,0C114.848,0,0,114.848,0,256s114.848,256,256,256s256-114.848,256-256S397.152,0,256,0z M437.248,124.896
			c-27.584,10.944-55.936,19.616-85.024,25.312c-12.352-40.672-31.968-79.616-58.912-114.848
			C352.32,45.344,403.456,78.336,437.248,124.896z M328.448,325.76c-48.064-6.592-96.864-6.592-144.928,0
			c-9.856-45.888-9.888-93.376-0.064-139.296c23.872,3.264,48,5.536,72.544,5.536s48.64-2.272,72.512-5.536
			C338.336,232.384,338.304,279.872,328.448,325.76z M320.16,155.168c-42.592,5.504-85.76,5.504-128.352,0
			c13.12-41.152,34.56-80.16,64.192-114.72C285.632,75.008,307.04,114.016,320.16,155.168z M218.624,35.36
			c-26.944,35.232-46.528,74.176-58.88,114.848c-29.056-5.696-57.408-14.368-84.992-25.312
			C108.512,78.336,159.648,45.344,218.624,35.36z M32,256c0-37.312,9.312-72.448,25.504-103.424
			c30.592,12.576,61.984,22.464,94.272,28.96c-10.272,49.184-10.272,99.968,0.032,149.184c-32.256,6.432-63.776,16.256-94.304,28.8
			C41.312,328.48,32,293.344,32,256z M74.752,387.104c27.584-10.944,55.936-19.616,84.992-25.312
			c12.352,40.672,31.968,79.616,58.912,114.848C159.648,466.656,108.512,433.664,74.752,387.104z M191.84,356.832
			c42.56-5.504,85.728-5.504,128.32,0c-13.12,41.152-34.56,80.16-64.16,114.72C226.368,436.992,204.96,397.984,191.84,356.832z
			 M293.312,476.64c26.944-35.232,46.56-74.176,58.912-114.848c29.056,5.696,57.44,14.4,85.024,25.312
			C403.456,433.664,352.32,466.656,293.312,476.64z M360.16,330.656c10.304-49.184,10.336-99.968,0.032-149.152
			c32.288-6.496,63.712-16.352,94.304-28.96C470.688,183.552,480,218.688,480,256c0,37.344-9.312,72.48-25.504,103.456
			C423.968,346.944,392.448,337.12,360.16,330.656z"/>
	</g>
</g>
<g>
</g>
<g>
</g>
<g>
</g>
<g>
</g>
<g>
</g>
<g>
</g>
<g>
</g>
<g>
</g>
<g>
</g>
<g>
</g>
<g>
</g>
<g>
</g>
<g>
</g>
<g>
</g>
<g>
</g>
</svg>
