<?xml version="1.0"?>
<svg xmlns="http://www.w3.org/2000/svg" id="Capa_1" enable-background="new 0 0 512 512" height="512px" viewBox="0 0 512 512" width="512px"><g><g><path d="m510.417 368.292c-25.133-50.265-38.417-106.538-38.417-162.735v-190.557c0-8.284-6.716-15-15-15h-382c-4.143 0-7.894 1.68-10.609 4.396l-59.997 59.998c-2.813 2.813-4.394 6.628-4.394 10.606v422c0 6.067 3.655 11.537 9.26 13.858 1.856.769 3.805 1.142 5.737 1.142h.01 381.993c3.979 0 7.793-1.581 10.606-4.394l59.997-59.997c2.717-2.715 4.397-6.466 4.397-10.609v-47h25c5.199 0 10.027-2.692 12.76-7.114s2.982-9.945.657-14.594zm-480.417-287.079 30-30v379.573l-30 30zm360.787 400.787h-339.573l30-30h339.573zm51.213-60h-352v-77.25c3.32 11.728 6.904 23.396 10.77 34.993 2.042 6.126 7.774 10.257 14.23 10.257h327zm-316.109-62c-23.82-74.948-35.891-152.771-35.891-231.491v-98.509h352v175.557c0 52.859 10.858 105.781 31.554 154.443z" data-original="#000000" class="active-path" data-old_color="#000000" fill="#2E3B49"/><path d="m135 90h261c8.284 0 15-6.716 15-15s-6.716-15-15-15h-261c-8.284 0-15 6.716-15 15s6.716 15 15 15z" data-original="#000000" class="active-path" data-old_color="#000000" fill="#2E3B49"/><path d="m135 150h261c8.284 0 15-6.716 15-15s-6.716-15-15-15h-261c-8.284 0-15 6.716-15 15s6.716 15 15 15z" data-original="#000000" class="active-path" data-old_color="#000000" fill="#2E3B49"/><path d="m411 195c0-8.284-6.716-15-15-15h-261c-8.284 0-15 6.716-15 15s6.716 15 15 15h261c8.284 0 15-6.716 15-15z" data-original="#000000" class="active-path" data-old_color="#000000" fill="#2E3B49"/><path d="m396 270c8.284 0 15-6.716 15-15s-6.716-15-15-15h-240c-8.284 0-15 6.716-15 15s6.716 15 15 15z" data-original="#000000" class="active-path" data-old_color="#000000" fill="#2E3B49"/><path d="m401 300h-230c-8.284 0-15 6.716-15 15s6.716 15 15 15h230c8.284 0 15-6.716 15-15s-6.716-15-15-15z" data-original="#000000" class="active-path" data-old_color="#000000" fill="#2E3B49"/></g></g> </svg>
