<?xml version="1.0"?>
<svg xmlns="http://www.w3.org/2000/svg" id="Capa_1" enable-background="new 0 0 512 512" height="512px" viewBox="0 0 512 512" width="512px"><g><g><g><path d="m102.31 359.232c-4.453-13.358-8.555-26.805-12.31-40.33v103.098h382v-32h-327c-19.399 0-36.555-12.365-42.69-30.768z" data-original="#000000" class="active-path" data-old_color="#000000" fill="#2E3B49"/></g><path d="m510.417 338.292c-25.133-50.265-38.417-106.537-38.417-162.734v-160.558c0-8.284-6.716-15-15-15h-352c-8.284 0-15 6.716-15 15v83.509c0 85.549 13.717 170.076 40.77 251.234 2.042 6.126 7.773 10.257 14.23 10.257h352c5.199 0 10.027-2.692 12.76-7.114s2.981-9.945.657-14.594zm-360.417-293.292h261c8.284 0 15 6.716 15 15s-6.716 15-15 15h-261c-8.284 0-15-6.716-15-15s6.716-15 15-15zm0 60h261c8.284 0 15 6.716 15 15s-6.716 15-15 15h-261c-8.284 0-15-6.716-15-15s6.716-15 15-15zm-15 75c0-8.284 6.716-15 15-15h261c8.284 0 15 6.716 15 15s-6.716 15-15 15h-261c-8.284 0-15-6.716-15-15zm21 60c0-8.284 6.716-15 15-15h240c8.284 0 15 6.716 15 15s-6.716 15-15 15h-240c-8.284 0-15-6.716-15-15zm260 75h-230c-8.284 0-15-6.716-15-15s6.716-15 15-15h230c8.284 0 15 6.716 15 15s-6.716 15-15 15z" data-original="#000000" class="active-path" data-old_color="#000000" fill="#2E3B49"/><g><path d="m60 430.787v-422l-55.606 55.607c-2.813 2.813-4.394 6.628-4.394 10.606v415.787z" data-original="#000000" class="active-path" data-old_color="#000000" fill="#2E3B49"/><path d="m81.213 452-60 60h375.787c3.978 0 7.793-1.581 10.606-4.394l55.607-55.606z" data-original="#000000" class="active-path" data-old_color="#000000" fill="#2E3B49"/></g></g></g> </svg>
