<?xml version="1.0"?>
<svg xmlns="http://www.w3.org/2000/svg" id="Capa_1" enable-background="new 0 0 512 512" height="512px" viewBox="0 0 512 512" width="512px"><g><path d="m171 362h70v150h-70z" data-original="#000000" class="active-path" data-old_color="#000000" fill="#2E3B49"/><path d="m449.243 289.179c-.415.005-.829.008-1.243.008-24.701 0-47.206-9.576-64-25.212-16.794 15.636-39.299 25.212-64 25.212s-47.206-9.576-64-25.212c-16.794 15.636-39.299 25.212-64 25.212s-47.206-9.576-64-25.212c-16.794 15.636-39.299 25.212-64 25.212-.416 0-.823-.003-1.239-.008-7.433-.096-14.723-1.068-21.761-2.853v190.674c0 19.299 15.701 35 35 35h65v-150h-5c-8.284 0-15-6.716-15-15s6.716-15 15-15h240c8.284 0 15 6.716 15 15s-6.716 15-15 15h-5v150h65c19.299 0 35-15.701 35-35v-190.674c-7.038 1.784-14.326 2.756-21.757 2.853z" data-original="#000000" class="active-path" data-old_color="#000000" fill="#2E3B49"/><path d="m271 362h70v150h-70z" data-original="#000000" class="active-path" data-old_color="#000000" fill="#2E3B49"/><path d="m146.741 127.34h94.259v-126.933c0-.137.017-.271.021-.407h-66.174c.032 1.216-.065 2.452-.344 3.693z" data-original="#000000" class="active-path" data-old_color="#000000" fill="#2E3B49"/><path d="m365.259 127.34-27.762-123.647c-.279-1.241-.376-2.478-.344-3.693h-66.173c.003.137.02.27.02.407v126.933z" data-original="#000000" class="active-path" data-old_color="#000000" fill="#2E3B49"/><path d="m63.15 259.181c.286.004.565.005.85.005 19.931 0 37.733-9.115 49.471-23.402l-.396-78.445h-113.075v36.892c0 35.175 27.98 64.494 63.15 64.95z" data-original="#000000" class="active-path" data-old_color="#000000" fill="#2E3B49"/><path d="m367.414 0 28.592 127.34h109.277l-51.392-114.777c-3.423-7.643-11.016-12.563-19.39-12.563z" data-original="#000000" class="active-path" data-old_color="#000000" fill="#2E3B49"/><path d="m115.994 127.34 28.591-127.34h-67.094c-8.37 0-15.961 4.915-19.385 12.553l-51.467 114.787z" data-original="#000000" class="active-path" data-old_color="#000000" fill="#2E3B49"/><path d="m241 236.342v-79.002h-97.924l.402 79.553c11.737 13.642 29.114 22.293 48.522 22.293 19.671.001 37.26-8.881 49-22.844z" data-original="#000000" class="active-path" data-old_color="#000000" fill="#2E3B49"/><path d="m368.522 236.894.401-79.553h-97.923v79.001c11.74 13.963 29.329 22.845 49 22.845 19.408 0 36.785-8.651 48.522-22.293z" data-original="#000000" class="active-path" data-old_color="#000000" fill="#2E3B49"/><path d="m512 194.233v-36.893h-113.076l-.396 78.447c11.738 14.286 29.539 23.4 49.472 23.4.283 0 .566-.002.85-.005 35.17-.457 63.15-29.776 63.15-64.949z" data-original="#000000" class="active-path" data-old_color="#000000" fill="#2E3B49"/></g> </svg>
